<svg xmlns="http://www.w3.org/2000/svg" width="35" height="36" viewBox="0 0 35 36" fill="none">
                  <path d="M25.8298 31.7964C24.2144 33.3795 22.4508 33.1295 20.753 32.3796C18.9563 31.6131 17.308 31.5797 15.4125 32.3796C13.0389 33.4128 11.7862 33.1129 10.3687 31.7964C2.32493 23.4141 3.51171 10.649 12.6433 10.1824C14.8685 10.2991 16.418 11.4156 17.7201 11.5156C19.6651 11.1156 21.5277 9.96579 23.6046 10.1158C26.0935 10.3157 27.9726 11.3156 29.2088 13.1154C24.0661 16.2317 25.2858 23.0808 30 24.9972C29.0605 27.4969 27.8407 29.9799 25.8133 31.813L25.8298 31.7964ZM17.5553 10.0824C17.308 6.36624 20.2915 3.29996 23.72 3C24.198 7.29946 19.8629 10.4991 17.5553 10.0824Z" fill="url(#paint0_linear_1290_232)"/>
                  <defs>
                    <linearGradient id="paint0_linear_1290_232" x1="1.93878" y1="-17.9375" x2="31.8437" y2="-18.7584" gradientUnits="userSpaceOnUse">
                      <stop stop-color="#89A3B3"/>
                      <stop offset="1" stop-color="#37525E"/>
                    </linearGradient>
                  </defs>
                </svg>