<svg xmlns="http://www.w3.org/2000/svg" width="29" height="30" viewBox="0 0 29 30" fill="none">
                  <path d="M13.626 14.3398L1.06573 27.5148C1.20678 28.0153 1.46026 28.4768 1.80677 28.8642C2.15329 29.2515 2.58368 29.5544 3.06504 29.7497C3.54639 29.945 4.06598 30.0275 4.58407 29.991C5.10217 29.9544 5.60506 29.7997 6.05429 29.5388L20.1869 21.4802L13.626 14.3398Z" fill="#EA4335"/>
                  <path d="M26.3266 12.0747L20.1812 8.57227L13.2637 14.6122L20.2093 21.4296L26.3079 17.9647C26.8482 17.6832 27.3007 17.26 27.6165 16.7408C27.9322 16.2217 28.0991 15.6265 28.0991 15.0197C28.0991 14.4128 27.9322 13.8176 27.6165 13.2985C27.3007 12.7793 26.8482 12.3561 26.3079 12.0746L26.3266 12.0747Z" fill="#FBBC04"/>
                  <path d="M1.01405 2.47266C0.937691 2.75429 0.899657 3.04487 0.900973 3.33661V26.6639C0.901727 26.9556 0.939725 27.2459 1.01405 27.528L14.088 14.6622L1.01405 2.47266Z" fill="#4285F4"/>
                  <path d="M13.701 15.0002L20.1869 8.57825L6.09376 0.478127C5.56351 0.166622 4.96043 0.00164849 4.34595 6.51195e-06C2.82105 -0.00296648 1.48043 1.01231 1.06573 2.48447L13.701 15.0002Z" fill="#34A853"/>
                </svg>